<svg xmlns="http://www.w3.org/2000/svg" width="990" height="1059" viewBox="0 0 990 1059">
<g>
<path d="M 288.25 620.16 C286.19,623.36 284.05,625.95 283.50,625.91 C280.94,625.72 246.80,616.75 234.58,613.06 C166.17,592.40 119.44,561.71 108.44,530.22 C101.92,511.56 106.15,492.78 120.77,475.50 C139.41,453.47 180.71,430.22 225.50,416.54 C231.55,414.70 241.23,411.61 247.00,409.69 C252.77,407.77 259.98,405.72 263.00,405.14 C266.02,404.56 279.52,401.83 293.00,399.07 C349.62,387.50 403.93,381.96 476.00,380.41 C496.61,379.96 506.18,380.08 505.50,380.76 C504.95,381.32 501.06,384.68 496.85,388.23 L 489.20 394.68 L 465.35 395.34 C413.79,396.76 379.56,399.70 335.00,406.53 C315.41,409.53 275.84,417.40 269.48,419.56 C267.00,420.40 263.52,421.25 261.74,421.46 C256.99,422.00 244.81,424.82 242.50,425.91 C241.40,426.43 234.65,428.75 227.50,431.06 C183.93,445.17 152.57,462.09 134.28,481.34 C91.22,526.68 144.51,576.59 268.50,607.07 C279.50,609.78 289.29,611.99 290.25,611.99 C292.83,612.00 292.42,613.69 288.25,620.16 ZM 632.50 637.94 C621.29,639.72 615.79,640.13 616.15,639.13 C616.34,638.60 619.73,634.80 623.67,630.69 C630.41,623.66 631.17,623.17 636.17,622.53 C648.73,620.94 668.23,617.92 677.50,616.14 C683.00,615.08 693.74,613.03 701.37,611.58 C711.83,609.59 717.36,607.95 723.87,604.88 C730.28,601.87 732.90,601.08 734.08,601.82 C736.19,603.13 740.28,602.08 763.22,594.30 C822.55,574.18 857.08,551.01 866.13,525.25 C869.35,516.08 868.44,505.31 863.63,495.56 C853.25,474.56 823.11,453.69 780.50,437.99 C775.55,436.17 771.16,434.39 770.75,434.04 C770.34,433.69 771.48,430.65 773.28,427.28 L 776.55 421.15 L 788.03 425.62 C824.65,439.90 854.53,459.12 868.28,477.24 C878.31,490.46 882.02,500.38 881.97,513.93 C881.93,528.65 876.52,540.61 863.50,554.76 C847.84,571.78 815.36,591.45 786.50,601.38 C781.00,603.27 772.45,606.25 767.50,607.99 C758.46,611.18 738.26,617.10 728.00,619.57 C724.97,620.30 720.70,621.36 718.50,621.92 C694.38,628.08 671.42,632.62 650.00,635.46 C643.67,636.30 635.80,637.41 632.50,637.94 ZM 572.00 643.88 C545.69,645.56 507.33,646.17 503.00,644.99 C501.08,644.47 479.25,643.80 454.50,643.51 C391.41,642.78 372.71,641.20 311.50,631.39 C305.45,630.42 300.33,629.50 300.11,629.34 C299.64,629.00 308.03,616.00 308.73,616.00 C309.00,616.00 315.81,617.11 323.86,618.46 C344.04,621.84 373.59,626.00 385.00,627.05 C390.23,627.53 399.23,628.42 405.00,629.02 C421.80,630.76 424.71,630.89 461.00,631.59 C506.66,632.47 582.75,629.70 603.40,626.40 L 607.30 625.77 L 605.26 628.64 C604.13,630.21 600.58,634.01 597.36,637.07 L 591.50 642.64 ZM 759.85 422.98 C756.43,429.51 756.01,429.68 749.00,427.41 C731.34,421.69 684.66,411.26 657.50,406.97 C619.07,400.89 569.46,395.99 547.08,396.07 C540.40,396.10 529.46,395.80 522.78,395.41 L 510.64 394.70 L 513.57 392.29 C527.48,380.85 527.78,380.68 534.87,380.85 C538.52,380.93 547.12,381.44 554.00,381.98 C560.88,382.52 573.25,383.43 581.50,384.01 C615.57,386.41 654.08,391.36 687.00,397.58 C708.86,401.71 750.12,412.05 760.56,416.02 L 763.01 416.95 Z" fill="rgb(6,90,251)"/>
<path d="M 422.00 310.46 C422.00,312.70 419.44,312.35 416.80,309.75 C415.53,308.51 413.26,306.94 411.75,306.27 C410.16,305.56 409.00,304.25 409.00,303.16 C409.00,302.12 410.78,295.03 412.95,287.39 C431.77,221.31 458.25,175.04 487.00,157.99 C498.01,151.46 504.71,149.75 517.60,150.15 C528.59,150.50 528.80,150.55 538.60,155.41 C547.35,159.74 549.73,161.55 559.03,170.91 C580.88,192.88 598.69,226.58 613.52,274.00 C615.85,281.42 618.86,290.21 620.21,293.53 L 622.68 299.56 L 615.40 303.67 L 608.12 307.78 L 607.02 304.64 C606.42,302.91 605.24,298.23 604.42,294.23 C602.44,284.68 591.28,252.04 584.93,237.22 C571.17,205.13 555.06,182.21 538.48,171.11 C529.65,165.21 523.38,163.55 512.34,164.19 C502.87,164.73 496.23,167.50 487.50,174.52 C467.96,190.23 451.25,218.87 435.35,263.89 C430.96,276.32 422.00,307.58 422.00,310.46 ZM 530.71 923.46 C499.92,933.80 468.07,912.39 442.21,864.00 C436.17,852.68 430.34,839.58 428.50,833.15 C427.77,830.59 424.87,822.00 422.05,814.07 C419.23,806.13 417.12,799.14 417.35,798.54 C418.01,796.82 428.09,791.68 428.93,792.64 C429.35,793.11 432.21,800.92 435.29,810.00 C457.58,875.75 486.07,912.00 515.44,912.00 C535.16,912.00 553.83,896.37 572.00,864.64 C578.07,854.04 589.01,829.75 592.44,819.25 C593.63,815.62 594.69,814.00 595.88,814.00 C598.52,814.00 608.16,820.43 607.18,821.54 C606.71,822.07 605.52,824.75 604.52,827.50 C600.85,837.64 590.07,860.81 584.50,870.51 C567.86,899.50 550.14,916.94 530.71,923.46 ZM 632.50 637.94 C635.80,637.41 643.67,636.30 650.00,635.46 C662.93,633.75 676.43,631.41 690.40,628.48 C677.51,631.20 665.00,633.43 653.50,635.05 C648.55,635.75 644.39,636.39 644.26,636.48 C644.13,636.57 643.10,645.38 641.97,656.07 C636.70,705.82 628.89,747.39 616.82,790.00 C614.57,797.97 612.43,804.83 612.08,805.23 C611.72,805.64 608.97,804.66 605.97,803.06 C603.81,801.91 602.34,801.18 601.54,800.00 C599.87,797.56 601.08,793.16 604.95,779.02 L 605.31 777.69 C615.09,742.00 623.77,694.99 627.96,655.00 C628.56,649.22 629.20,643.21 629.37,641.63 L 629.69 638.75 L 622.77 639.31 C625.30,639.03 628.54,638.57 632.50,637.94 ZM 419.95 779.37 C416.60,781.37 413.73,783.00 413.56,783.00 C412.38,783.00 402.96,749.14 400.07,734.50 C395.40,710.88 389.69,671.75 387.50,648.43 L 386.83 641.37 L 373.67 640.09 C371.91,639.91 369.64,639.66 366.99,639.34 C388.28,641.74 406.97,642.70 434.74,643.22 C418.38,642.98 405.31,642.67 402.50,642.43 L 395.50 641.85 L 397.76 643.97 C401.78,647.75 402.77,650.36 403.47,659.00 C404.98,677.62 409.68,708.11 415.97,740.03 C418.98,755.33 420.59,761.16 423.39,766.91 C425.35,770.95 426.75,774.59 426.50,775.00 C426.25,775.41 423.30,777.37 419.95,779.37 ZM 647.88 501.89 C648.29,516.53 648.32,528.87 647.95,529.31 C647.37,530.01 645.92,528.45 639.51,520.20 C638.95,519.49 637.47,517.80 636.21,516.46 C634.05,514.14 633.88,512.88 632.98,492.26 C631.40,456.18 626.90,404.40 625.20,402.87 C624.91,402.61 623.14,402.25 620.29,401.84 C629.38,402.93 638.50,404.14 647.25,405.41 C643.82,405.02 641.71,404.96 641.35,405.32 C641.05,405.61 641.51,412.08 642.37,419.68 C645.01,443.06 647.09,474.04 647.88,501.89 ZM 399.02 607.83 C399.65,617.36 399.97,625.36 399.72,625.61 C399.26,626.08 386.16,611.93 384.70,609.40 C383.77,607.77 383.53,553.15 384.36,531.72 L 384.93 516.94 L 390.19 510.97 C393.08,507.69 395.73,505.00 396.08,505.00 C396.43,505.00 396.98,524.24 397.29,547.75 C397.61,571.26 398.39,598.30 399.02,607.83 ZM 383.90 400.19 C405.29,398.00 426.79,396.63 452.42,395.74 C437.79,396.33 421.56,397.17 413.88,397.81 L 405.50 398.50 L 404.66 405.50 C404.20,409.35 403.42,413.40 402.92,414.50 C400.33,420.28 398.76,429.55 398.50,440.50 C398.35,447.10 397.67,458.46 397.00,465.74 C396.32,473.02 395.99,479.84 396.26,480.89 C396.62,482.25 395.22,484.32 391.48,488.01 L 386.21 493.23 L 385.63 490.36 C385.31,488.79 385.22,477.60 385.43,465.50 C385.77,446.17 386.90,431.12 389.83,406.75 L 390.64 400.00 L 388.07 400.00 C386.97,400.01 385.57,400.07 383.90,400.19 ZM 660.72 393.06 C640.52,389.91 619.33,387.29 599.05,385.44 C603.35,385.82 607.26,386.19 610.00,386.49 C616.60,387.22 621.90,387.39 622.44,386.89 C623.60,385.81 621.36,370.93 615.94,343.68 C613.77,332.78 612.00,323.49 612.00,323.05 C612.00,322.01 624.10,314.77 624.75,315.41 C625.96,316.62 634.33,359.37 637.06,378.29 C637.76,383.12 638.82,387.72 639.42,388.50 C640.11,389.42 646.41,390.84 657.00,392.48 C658.23,392.67 659.46,392.86 660.72,393.06 ZM 647.82 568.17 L 647.55 583.02 L 640.33 590.76 L 633.10 598.50 L 632.89 593.50 C632.78,590.75 632.72,587.86 632.76,587.09 C632.80,586.31 633.16,574.72 633.56,561.34 C633.95,547.95 634.55,537.03 634.89,537.06 C635.23,537.09 638.33,540.76 641.80,545.22 L 648.10 553.32 ZM 617.27 639.64 C612.19,639.72 611.36,638.77 615.83,637.21 C617.49,636.63 624.20,630.15 631.97,621.61 C639.28,613.57 645.50,607.00 645.78,607.00 C646.06,607.00 645.99,610.15 645.64,614.00 C645.01,620.79 645.05,621.00 647.24,621.00 C647.30,621.00 647.38,620.99 647.47,620.99 C643.43,621.57 639.55,622.10 636.17,622.53 C631.17,623.17 630.41,623.66 623.67,630.69 C619.73,634.80 616.34,638.60 616.15,639.13 C616.05,639.41 616.42,639.58 617.27,639.64 ZM 566.29 644.22 C537.72,645.88 512.33,646.32 504.96,645.27 C513.42,645.99 542.96,645.50 566.29,644.22 ZM 302.12 412.41 C313.93,410.11 326.39,407.85 335.00,406.53 C344.01,405.15 352.61,403.93 361.00,402.84 C343.28,405.29 320.70,408.97 302.12,412.41 ZM 713.57 403.34 C733.68,407.85 751.45,412.56 760.56,416.02 C753.61,413.38 733.01,407.91 713.57,403.34 ZM 600.28 399.61 C581.26,397.81 556.76,396.04 547.08,396.07 C559.02,396.03 578.69,397.40 600.28,399.61 ZM 477.42 395.00 L 489.20 394.68 L 496.85 388.23 C497.58,387.61 498.31,386.99 499.01,386.40 C498.25,387.04 497.46,387.71 496.66,388.39 L 488.81 395.00 L 477.99 395.00 C477.81,395.00 477.62,395.00 477.42,395.00 ZM 675.27 410.10 C700.94,415.00 732.72,422.33 747.61,426.97 C745.48,426.38 743.06,425.71 740.55,424.99 C724.31,420.35 697.10,414.31 675.27,410.10 ZM 328.05 634.00 C313.24,631.81 300.72,629.79 300.11,629.34 C300.33,629.50 305.45,630.42 311.50,631.39 C317.38,632.33 322.87,633.20 328.05,634.00 ZM 754.31 428.73 C755.47,428.76 756.29,428.40 757.09,427.52 C756.42,428.43 755.87,428.99 755.60,428.99 C755.46,428.99 755.01,428.89 754.31,428.73 ZM 554.99 382.06 C554.65,382.03 554.32,382.00 554.00,381.98 C547.80,381.49 540.20,381.03 536.09,380.88 C540.25,381.01 548.04,381.48 554.00,381.98 C554.31,382.00 554.64,382.03 554.99,382.06 ZM 299.69 397.73 C297.46,398.17 295.23,398.62 293.00,399.07 C279.52,401.83 266.02,404.56 263.00,405.14 C266.02,404.56 279.52,401.82 293.00,399.06 C295.14,398.62 297.37,398.18 299.69,397.73 ZM 526.85 382.18 C524.14,383.61 520.59,386.52 513.57,392.29 C520.60,386.51 524.12,383.61 526.85,382.18 Z" fill="rgb(140,229,184)"/>
<path d="M 395.10 484.02 C396.11,482.64 396.46,481.65 396.26,480.89 C395.99,479.84 396.32,473.02 397.00,465.74 C397.67,458.46 398.35,447.10 398.50,440.50 C398.76,429.55 400.33,420.28 402.92,414.50 C403.16,413.96 403.48,412.71 403.79,411.12 C401.27,431.11 397.74,469.09 398.18,475.43 L 398.54 480.50 ZM 384.34 605.52 C384.15,603.65 384.00,601.16 383.80,597.70 C383.42,590.99 382.82,570.88 382.47,553.00 L 381.83 520.50 L 384.93 516.96 L 384.36 531.72 C383.65,550.00 383.72,592.42 384.34,605.52 ZM 386.73 437.07 C385.99,446.65 385.61,455.50 385.43,465.50 C385.22,477.60 385.31,488.79 385.63,490.36 L 386.19 493.13 L 382.89 496.50 L 383.48 483.00 C384.00,470.99 385.26,453.63 386.73,437.07 ZM 417.85 780.61 C414.59,782.53 411.98,784.00 411.83,783.99 C411.27,783.98 407.96,772.60 407.98,770.76 C407.99,769.81 407.54,767.11 406.98,764.76 C404.82,755.73 403.20,748.78 401.85,742.56 C405.70,758.89 412.57,783.00 413.56,783.00 C413.69,783.00 415.48,782.00 417.85,780.61 ZM 405.08 402.01 L 405.50 398.50 L 413.88 397.81 C417.09,397.54 421.78,397.24 427.23,396.94 C415.07,397.64 406.35,398.37 405.85,398.86 C405.66,399.05 405.40,400.17 405.08,402.01 ZM 390.61 616.47 C389.42,615.19 388.34,614.01 387.58,613.20 C386.63,612.18 385.97,611.43 385.49,610.51 C386.58,611.92 388.51,614.15 390.61,616.47 ZM 399.41 625.48 C398.68,625.04 396.92,623.36 394.99,621.25 C394.46,620.67 393.88,620.03 393.27,619.37 C396.01,622.30 398.54,624.86 399.41,625.48 ZM 399.02 607.83 C399.65,617.36 399.98,625.35 399.75,625.58 C399.75,625.59 399.74,625.59 399.73,625.59 C399.96,625.10 399.64,617.20 399.02,607.83 ZM 445.94 396.01 C448.11,395.92 450.28,395.83 452.42,395.74 L 452.42 395.74 C454.93,395.65 457.47,395.57 460.06,395.49 C455.34,395.64 450.57,395.82 445.94,396.01 ZM 389.83 406.75 L 390.64 400.00 L 389.83 406.75 C389.73,407.57 389.63,408.38 389.54,409.18 C389.64,408.35 389.73,407.54 389.83,406.75 ZM 395.96 711.41 C395.60,709.28 395.24,707.03 394.88,704.70 C395.23,706.96 395.59,709.20 395.96,711.41 ZM 397.27 546.41 C397.28,546.84 397.29,547.28 397.29,547.71 C397.29,547.73 397.29,547.74 397.29,547.75 C397.29,547.30 397.28,546.85 397.27,546.41 Z" fill="rgb(197,241,220)"/>
<path d="M 251.30 405.79 C252.06,406.76 254.12,406.91 259.16,406.05 C255.66,406.98 250.99,408.37 247.00,409.69 C243.92,410.72 239.73,412.07 235.57,413.40 C236.25,413.09 236.70,412.84 236.85,412.65 C237.45,411.90 236.57,408.53 234.33,403.00 C226.03,382.58 219.09,358.54 216.47,341.18 C214.53,328.30 214.58,308.94 216.59,299.21 C222.60,270.07 243.66,254.00 275.86,254.00 C304.52,254.00 347.97,269.10 387.86,292.91 C399.98,300.16 405.47,303.00 407.31,303.00 C408.21,303.00 409.49,299.95 410.98,294.25 C412.09,289.98 413.68,284.54 415.51,278.68 C414.65,281.54 413.79,284.44 412.95,287.39 C410.78,295.03 409.00,302.12 409.00,303.16 C409.00,304.25 410.16,305.56 411.75,306.27 C413.26,306.94 415.53,308.51 416.80,309.75 C419.00,311.91 421.14,312.52 421.80,311.37 C421.77,313.18 423.35,314.65 430.00,319.32 C451.79,334.64 470.53,349.17 494.17,369.11 L 506.84 379.80 L 500.51 385.12 C503.11,382.90 505.12,381.15 505.50,380.76 C506.18,380.08 496.61,379.96 476.00,380.41 C444.60,381.08 416.58,382.51 390.27,384.87 L 392.72 384.64 L 394.42 373.07 C395.35,366.71 397.89,352.58 400.06,341.68 C402.23,330.78 404.00,321.53 404.00,321.13 C404.00,317.64 359.55,292.35 336.00,282.45 C324.57,277.64 306.95,272.03 296.57,269.89 C282.93,267.09 263.25,267.56 255.10,270.88 C247.09,274.15 241.36,278.71 236.95,285.31 C225.43,302.56 225.62,330.42 237.50,369.48 C241.24,381.78 249.49,403.49 251.30,405.79 ZM 702.50 841.85 C722.44,844.40 736.42,841.13 746.83,831.49 C757.81,821.33 761.55,809.14 760.64,786.50 C759.87,767.10 755.68,748.76 746.25,723.50 C740.65,708.50 729.59,683.79 722.29,670.00 C715.12,656.44 698.99,628.11 698.15,627.61 C697.79,627.39 690.97,628.48 683.00,630.02 C681.82,630.25 680.55,630.49 679.23,630.73 C682.91,630.02 686.64,629.27 690.40,628.48 C699.57,626.55 708.94,624.36 718.50,621.92 C720.69,621.36 724.94,620.31 727.96,619.58 C720.60,621.35 713.57,623.24 713.18,623.55 C713.01,623.69 716.11,629.36 720.08,636.15 C730.26,653.58 744.54,681.94 751.77,699.10 C769.37,740.86 777.30,777.69 774.15,802.96 C769.78,838.03 749.73,856.04 715.00,856.14 C702.08,856.17 690.27,854.38 674.92,850.07 C663.37,846.82 639.05,837.34 632.03,833.35 C621.13,827.15 608.22,821.07 607.12,821.60 C607.14,821.58 607.16,821.56 607.18,821.54 C608.16,820.43 598.52,814.00 595.88,814.00 C595.05,814.00 594.28,814.79 593.49,816.50 L 594.83 812.90 L 586.17 807.27 C581.40,804.17 575.25,800.20 572.50,798.44 C569.75,796.69 564.12,793.09 560.00,790.44 C550.27,784.20 521.25,762.48 508.58,751.94 L 498.66 743.70 L 503.08 739.87 C505.51,737.77 508.24,735.80 509.14,735.49 C510.23,735.12 515.91,739.05 526.14,747.26 C539.53,758.00 562.37,775.33 571.50,781.68 C573.15,782.83 578.21,785.24 582.75,787.03 C588.77,789.40 591.00,790.76 591.00,792.06 C591.00,793.74 596.56,798.00 598.75,798.00 C598.81,798.00 598.87,798.00 598.93,798.01 C599.03,798.01 599.11,798.02 599.20,798.00 C599.73,797.90 600.11,796.98 602.00,790.09 C600.59,795.84 600.42,798.36 601.54,800.00 C602.34,801.18 603.81,801.91 605.97,803.06 C608.97,804.66 611.72,805.64 612.08,805.23 C612.43,804.83 614.57,797.97 616.82,790.00 C620.69,776.35 624.12,762.81 627.17,749.07 C623.72,764.78 619.84,779.90 615.55,794.43 C613.62,800.99 612.14,806.46 612.27,806.58 C613.15,807.42 632.81,817.71 640.71,821.47 C662.84,832.03 686.38,839.79 702.50,841.85 ZM 630.30 508.39 C631.28,509.82 632.49,511.00 632.97,511.00 C633.85,511.00 633.73,506.04 631.95,472.92 C632.36,479.60 632.71,486.15 632.98,492.26 C633.88,512.88 634.05,514.14 636.21,516.46 C637.47,517.80 638.95,519.49 639.51,520.20 C645.92,528.45 647.37,530.01 647.95,529.31 C648.13,529.10 648.22,526.02 648.21,521.23 L 648.31 530.99 L 658.59 544.45 L 668.86 557.91 L 664.85 562.95 C662.64,565.73 660.31,567.99 659.66,567.99 C659.02,567.98 656.47,565.07 654.00,561.53 C651.53,557.98 649.16,555.07 648.75,555.04 C648.45,555.03 648.15,557.71 647.95,561.44 L 648.10 553.32 L 641.80 545.22 C638.33,540.76 635.23,537.09 634.89,537.06 C634.55,537.03 633.95,547.95 633.56,561.34 C633.45,564.89 633.35,568.31 633.25,571.44 C633.35,568.08 633.46,564.36 633.57,560.50 L 634.27 535.50 L 630.50 530.50 C628.43,527.75 623.98,522.56 620.61,518.96 C617.25,515.37 608.83,505.69 601.91,497.46 C580.38,471.89 551.12,441.20 522.20,413.87 L 505.91 398.47 L 510.92 394.47 L 510.64 394.70 L 522.78 395.41 C528.07,395.72 536.03,395.97 542.44,396.05 L 525.38 396.03 L 556.47 427.27 C573.57,444.44 594.29,466.38 602.51,476.00 C610.74,485.62 619.95,496.26 622.98,499.64 C626.02,503.01 629.31,506.95 630.30,508.39 ZM 234.35 428.80 C238.54,427.40 241.77,426.26 242.50,425.91 C244.81,424.82 256.99,422.00 261.74,421.46 C262.96,421.32 264.97,420.87 266.91,420.34 C263.84,421.28 261.00,422.00 260.30,422.00 C258.12,422.00 259.22,424.64 269.24,443.50 C284.96,473.08 310.23,513.31 333.17,545.24 L 337.29 550.98 L 334.57 554.90 C331.86,558.81 330.47,560.90 328.97,560.98 C327.30,561.06 325.50,558.64 321.63,553.40 L 321.22 552.84 C294.50,516.75 268.81,475.49 252.19,442.00 C247.96,433.48 244.39,426.31 244.25,426.08 C244.10,425.82 240.05,426.98 234.35,428.80 ZM 408.00 381.51 C408.00,383.15 408.81,383.25 417.80,382.66 C423.19,382.31 439.94,381.53 455.03,380.94 C480.17,379.96 484.13,379.64 482.92,378.67 C482.69,378.48 477.55,374.29 471.50,369.35 C452.59,353.90 418.28,328.36 417.52,329.17 C416.63,330.11 408.00,377.58 408.00,381.51 ZM 402.93 654.05 C402.18,649.14 400.89,646.91 397.76,643.97 L 395.50 641.85 L 402.50 642.43 C405.31,642.67 418.38,642.98 434.74,643.22 C440.85,643.34 447.39,643.43 454.50,643.51 C479.25,643.80 501.08,644.47 503.00,644.99 C503.39,645.10 504.05,645.19 504.96,645.27 C507.80,645.67 513.34,645.86 520.70,645.84 C488.30,646.28 445.71,646.00 435.00,644.99 C433.31,644.83 431.75,644.67 430.31,644.53 C423.33,643.82 419.36,643.42 418.65,644.75 C417.72,646.50 422.48,651.28 433.53,662.37 C435.26,664.10 437.13,665.99 439.17,668.04 C459.84,688.88 477.31,705.56 493.72,720.12 L 498.92 724.74 L 493.03 729.31 L 487.14 733.89 L 474.82 722.82 C468.04,716.73 449.05,698.27 432.61,681.80 L 402.73 651.87 ZM 399.02 607.83 C398.84,605.03 398.64,600.72 398.44,595.44 C398.86,604.93 399.34,613.32 399.85,619.39 L 400.50 627.28 L 405.55 628.57 C407.30,629.01 409.14,629.37 411.57,629.68 C409.57,629.49 407.43,629.27 405.00,629.02 C399.23,628.42 390.23,627.53 385.00,627.05 C373.59,626.00 344.04,621.84 323.86,618.46 C322.88,618.29 321.91,618.13 320.97,617.97 C322.78,618.27 324.72,618.58 326.73,618.91 C352.17,623.08 378.85,626.49 379.66,625.67 C380.05,625.28 379.00,623.51 377.34,621.74 C375.68,619.96 373.25,616.92 371.95,615.00 C370.65,613.08 367.03,608.80 363.91,605.50 C356.97,598.15 338.05,575.75 338.02,574.84 C337.99,573.82 345.95,564.00 346.77,564.04 C347.17,564.06 351.46,569.34 356.29,575.79 C361.13,582.23 369.23,592.21 374.29,597.96 L 383.50 608.42 L 383.82 602.96 C383.88,602.04 383.88,600.49 383.85,598.53 C384.03,601.56 384.17,603.80 384.34,605.52 C384.44,607.77 384.57,609.16 384.70,609.40 C384.85,609.66 385.12,610.04 385.49,610.51 C385.97,611.43 386.63,612.18 387.58,613.20 C388.34,614.01 389.42,615.19 390.61,616.47 C391.48,617.44 392.39,618.42 393.27,619.37 C393.88,620.03 394.46,620.67 394.99,621.25 C396.92,623.36 398.68,625.04 399.41,625.48 C399.58,625.60 399.69,625.65 399.72,625.61 C399.74,625.59 399.75,625.59 399.75,625.58 C399.98,625.35 399.65,617.36 399.02,607.83 ZM 711.23 609.43 C708.42,610.16 705.23,610.85 701.37,611.58 C697.06,612.40 691.74,613.41 686.95,614.33 C688.03,614.04 688.50,613.83 688.71,613.63 C689.05,613.29 684.57,605.88 678.77,597.17 L 668.21 581.33 L 672.95 575.96 L 677.69 570.58 L 680.94 575.04 C682.73,577.49 688.76,586.41 694.34,594.85 L 704.50 610.20 L 709.63 609.69 C710.10,609.64 710.64,609.55 711.23,609.43 ZM 383.29 584.95 C383.22,583.79 383.15,582.62 383.07,581.47 C382.48,572.66 382.00,555.33 382.00,542.97 L 382.01 529.42 L 382.47 553.00 C382.68,564.02 383.00,575.90 383.29,584.95 ZM 630.76 455.12 C629.02,432.58 626.22,405.07 625.30,403.01 C626.49,405.26 628.87,429.03 630.76,455.12 ZM 125.57 470.30 C135.44,460.18 148.96,450.53 166.16,441.32 C149.55,450.41 135.44,460.39 125.57,470.30 ZM 299.69 397.73 C297.37,398.18 295.14,398.62 293.00,399.06 C285.42,400.61 277.83,402.16 272.11,403.32 C283.03,400.81 296.31,398.18 310.21,395.73 C306.71,396.37 303.20,397.04 299.69,397.73 ZM 396.17 505.39 C396.67,506.83 396.95,515.08 396.99,529.93 C396.73,516.93 396.42,507.40 396.17,505.39 ZM 588.46 398.56 C572.69,397.29 555.51,396.24 544.98,396.07 C545.72,396.07 546.42,396.08 547.08,396.07 C554.83,396.05 572.11,397.18 588.46,398.56 ZM 383.90 400.19 C385.57,400.07 386.97,400.01 388.07,400.00 C384.99,400.01 368.37,401.95 352.74,404.02 C355.59,403.60 358.35,403.21 361.00,402.84 C368.74,401.85 376.31,400.97 383.90,400.19 ZM 647.88 501.89 C647.35,483.42 646.26,463.56 644.82,445.45 C646.67,468.00 647.86,491.56 648.11,511.99 C648.05,508.85 647.98,505.44 647.88,501.89 ZM 108.44 530.22 C104.72,519.58 104.29,510.07 107.25,500.03 C104.53,509.96 104.90,520.11 108.44,530.22 ZM 421.32 630.46 C429.32,630.88 441.36,631.19 461.00,631.58 C478.19,631.92 499.71,631.73 520.97,631.20 C499.72,631.74 478.20,631.92 461.00,631.59 C439.05,631.17 429.31,630.95 421.32,630.46 ZM 179.41 450.15 C193.00,443.46 208.69,437.20 226.42,431.41 C217.94,434.27 208.33,437.69 202.15,440.15 C193.93,443.42 186.36,446.75 179.41,450.15 ZM 501.36 151.53 C506.00,150.10 509.07,149.89 517.60,150.15 C511.05,149.95 506.09,150.29 501.36,151.53 ZM 526.85 382.18 L 526.85 382.18 C526.05,382.60 525.18,383.14 524.18,383.85 C525.20,383.02 525.93,382.42 526.25,382.16 C526.86,381.65 527.99,381.28 529.80,381.08 C528.84,381.28 527.91,381.61 526.85,382.18 ZM 425.16 250.09 C426.53,246.33 427.83,242.95 428.96,240.18 C433.38,229.43 437.96,219.63 442.68,210.77 C436.48,222.41 430.61,235.56 425.16,250.09 ZM 648.26 620.87 C648.00,620.91 647.73,620.95 647.47,620.99 C647.38,620.99 647.30,621.00 647.24,621.00 C645.80,621.00 645.29,620.91 645.29,618.90 C645.34,619.42 645.47,619.82 645.72,620.13 C646.14,620.65 646.92,620.88 648.26,620.87 ZM 269.52 419.55 C272.86,418.42 285.01,415.78 298.66,413.09 C286.14,415.58 274.78,418.06 269.52,419.55 ZM 574.97 859.13 C573.90,861.21 572.90,863.07 572.00,864.64 C565.62,875.79 559.17,884.95 552.64,892.14 C560.31,883.68 567.85,872.52 574.97,859.13 ZM 412.69 722.74 C409.23,703.72 406.47,685.96 404.79,671.85 C406.58,686.52 409.34,704.24 412.69,722.74 ZM 422.47 307.81 C424.37,299.38 431.56,274.62 435.35,263.89 C431.72,274.17 424.68,298.36 422.47,307.81 ZM 647.76 578.55 C647.81,579.65 647.80,580.51 647.58,581.35 L 647.68 576.19 C647.70,577.02 647.72,577.81 647.76,578.55 ZM 381.68 385.68 C374.65,386.38 367.74,387.14 360.90,387.97 C367.62,387.12 373.94,386.41 379.61,385.88 ZM 536.23 380.89 C540.48,380.97 546.25,381.34 554.00,381.98 C548.11,381.49 540.43,381.02 536.23,380.89 ZM 592.23 819.88 C591.34,822.53 590.03,825.93 588.48,829.72 C589.49,827.18 590.48,824.59 591.46,821.96 ZM 308.69 616.01 C308.23,616.22 305.97,619.45 303.89,622.69 C306.01,619.34 308.29,616.00 308.59,616.00 C308.61,616.00 308.64,616.00 308.69,616.01 ZM 540.45 903.21 C537.14,905.59 533.80,907.49 530.44,908.90 C532.59,907.96 534.80,906.80 537.15,905.39 C538.25,904.72 539.35,904.00 540.45,903.21 ZM 584.85 643.07 L 591.50 642.64 L 597.36 637.07 C600.12,634.44 603.14,631.27 604.64,629.43 C603.14,631.27 600.12,634.45 597.35,637.09 L 591.49 642.68 ZM 540.36 645.43 C543.76,645.31 547.30,645.17 550.95,645.01 C548.02,645.17 544.44,645.31 540.36,645.43 ZM 647.89 635.87 C645.71,636.21 644.33,636.44 644.26,636.48 C644.23,636.51 644.14,637.07 644.01,638.08 C644.14,637.07 644.23,636.50 644.26,636.48 C644.34,636.43 645.75,636.19 647.89,635.87 ZM 625.23 402.90 C625.13,402.81 624.91,402.72 624.58,402.62 C624.91,402.71 625.12,402.79 625.20,402.87 C625.21,402.88 625.22,402.89 625.23,402.90 Z" fill="rgb(170,142,252)"/>
<path d="M 495.43 1000.01 C491.01,1002.18 489.25,1002.23 467.00,1000.90 C426.24,998.45 387.35,991.03 348.50,978.30 C321.38,969.41 284.79,953.52 279.69,948.41 C270.18,938.91 276.21,922.52 289.68,921.28 C293.97,920.88 295.89,921.49 307.26,926.90 C339.48,942.23 374.66,953.93 409.50,960.91 C431.38,965.29 465.04,969.00 482.84,969.00 C489.91,969.00 492.43,969.43 496.04,971.25 C507.82,977.19 507.47,994.14 495.43,1000.01 ZM 65.33 440.64 C54.56,445.13 43.00,437.37 43.00,425.64 C43.00,421.81 48.45,402.23 54.17,385.54 C65.79,351.64 85.30,311.72 104.58,282.39 C115.69,265.48 131.68,244.25 139.25,236.35 C146.78,228.49 156.45,228.33 163.34,235.95 C167.43,240.49 168.74,245.58 167.16,250.85 C166.56,252.86 161.80,259.84 156.59,266.36 C118.40,314.15 92.95,364.66 75.56,427.18 C73.73,433.76 69.98,438.69 65.33,440.64 ZM 146.82 823.30 C143.45,825.80 135.52,826.49 131.45,824.65 C127.06,822.66 121.60,816.05 109.19,797.69 C82.53,758.25 63.58,719.00 49.47,674.00 C44.53,658.25 38.03,631.35 38.01,626.59 C38.00,621.36 41.97,614.72 46.37,612.63 C50.65,610.60 58.18,610.53 61.97,612.48 C66.94,615.05 68.74,619.04 73.35,637.58 C87.86,696.02 111.02,745.43 146.87,794.41 C152.75,802.43 153.43,803.88 153.79,808.91 C154.22,815.06 152.13,819.37 146.82,823.30 ZM 329.13 137.19 C315.35,142.79 310.92,143.67 306.48,141.66 C302.20,139.72 297.38,133.86 296.59,129.63 C295.05,121.41 299.37,114.61 308.84,110.35 C364.04,85.54 437.50,70.79 499.00,72.16 C512.45,72.45 514.96,72.77 518.00,74.55 C528.55,80.75 528.89,94.83 518.68,102.41 C516.02,104.38 514.15,104.54 486.68,105.17 C470.63,105.53 451.65,106.55 444.50,107.43 C403.69,112.43 366.28,122.08 329.13,137.19 ZM 701.84 952.58 C692.71,957.16 687.95,958.99 685.26,958.96 C672.54,958.83 664.99,945.63 671.28,934.53 C673.28,931.00 675.57,929.49 691.73,921.03 C722.72,904.80 749.45,886.89 774.50,865.58 C787.58,854.45 810.66,831.36 822.72,817.32 C834.37,803.76 837.71,801.48 844.76,802.28 C853.07,803.21 859.00,809.93 859.00,818.40 C858.99,824.70 858.04,826.29 845.39,841.00 C806.69,886.01 755.88,925.50 701.84,952.58 ZM 861.68 287.94 C855.41,290.30 849.31,288.33 844.07,282.24 C841.82,279.63 835.17,271.46 829.28,264.09 C810.66,240.75 785.49,216.02 760.25,196.25 C746.46,185.46 720.93,168.42 705.20,159.52 C692.52,152.35 689.92,149.82 688.55,143.33 C686.23,132.38 697.94,121.83 708.92,124.98 C713.33,126.24 732.32,137.26 749.50,148.51 C792.84,176.91 832.98,214.58 865.20,257.09 C872.27,266.41 873.72,270.59 872.06,276.77 C870.92,281.00 865.98,286.32 861.68,287.94 ZM 937.58 652.10 C931.83,654.71 927.38,654.26 921.61,650.48 C918.31,648.32 915.00,642.15 915.00,638.18 C915.00,636.58 916.10,629.86 917.45,623.24 C923.85,591.82 926.55,559.95 925.69,526.00 C925.11,503.04 923.72,487.40 920.32,465.84 L 918.64 455.17 L 921.09 450.40 C927.36,438.24 944.15,438.29 949.92,450.50 C951.79,454.45 955.02,475.10 956.96,495.50 C960.73,535.28 958.45,581.50 950.64,623.50 C946.49,645.79 945.19,648.65 937.58,652.10 ZM 597.10 989.45 C588.61,993.84 579.73,991.20 575.07,982.91 C570.65,975.04 574.07,964.57 582.34,960.64 C593.78,955.22 607.41,965.12 605.55,977.51 C604.82,982.38 601.39,987.23 597.10,989.45 ZM 217.49 895.57 C211.60,900.07 202.71,899.65 197.15,894.62 C193.57,891.38 192.00,887.59 192.00,882.20 C192.00,869.26 207.35,861.69 217.66,869.55 C222.06,872.91 224.00,876.87 224.00,882.50 C224.00,888.19 222.06,892.09 217.49,895.57 ZM 53.58 539.95 C48.95,542.81 41.36,542.72 36.99,539.75 C31.31,535.89 29.50,532.56 29.50,526.00 C29.50,519.42 31.30,516.14 37.09,512.16 C39.94,510.21 41.45,509.89 46.26,510.23 C53.23,510.71 56.62,512.93 59.81,519.06 C61.56,522.44 61.97,524.44 61.51,527.45 C60.72,532.64 57.70,537.41 53.58,539.95 ZM 233.82 191.30 C226.45,196.76 214.08,193.06 210.36,184.28 C204.37,170.13 219.95,155.95 233.07,163.61 C243.47,169.68 243.86,183.87 233.82,191.30 ZM 915.76 373.70 C911.94,376.28 905.70,377.29 901.59,376.00 C900.00,375.50 897.22,373.67 895.44,371.94 C882.69,359.58 896.97,338.58 913.23,345.78 C924.53,350.78 925.99,366.81 915.76,373.70 ZM 904.94 747.03 C897.55,750.80 889.37,748.97 884.38,742.43 C881.98,739.28 881.50,737.70 881.50,732.90 C881.50,726.45 883.34,723.10 888.99,719.25 C893.55,716.15 901.44,716.15 906.05,719.25 C916.24,726.12 915.63,741.58 904.94,747.03 ZM 618.86 117.27 C615.04,120.10 608.38,120.48 603.40,118.15 C595.02,114.23 591.63,103.99 596.09,96.06 C604.34,81.37 626.00,86.75 626.00,103.50 C626.00,109.18 623.64,113.73 618.86,117.27 ZM 617.27 639.64 C617.60,639.66 618.01,639.67 618.49,639.66 L 613.26 640.15 L 599.57 654.32 C582.42,672.07 584.63,669.95 566.13,686.37 C552.01,698.91 553.49,697.29 581.50,669.53 C595.31,655.84 608.03,643.76 613.28,639.26 C613.88,639.54 615.23,639.67 617.27,639.64 ZM 624.99 639.13 L 629.69 638.75 L 629.37 641.63 C629.27,642.60 628.98,645.29 628.64,648.56 C629.13,642.85 629.20,639.34 628.72,639.14 C628.43,639.02 626.97,639.03 624.99,639.13 ZM 626.70 666.15 C624.94,680.66 622.66,695.83 620.01,710.87 C622.64,695.56 625.04,679.31 626.70,666.15 ZM 617.96 635.72 C621.09,633.03 626.52,627.59 631.97,621.61 C626.14,628.01 620.91,633.25 617.96,635.72 Z" fill="rgb(246,215,167)"/>
<path d="M 0.00 529.50 L 0.00 0.00 L 495.00 0.00 L 990.00 0.00 L 990.00 529.50 L 990.00 1059.00 L 495.00 1059.00 L 0.00 1059.00 L 0.00 529.50 ZM 495.43 1000.01 C507.47,994.14 507.82,977.19 496.04,971.25 C492.43,969.43 489.91,969.00 482.84,969.00 C465.04,969.00 431.38,965.29 409.50,960.91 C374.66,953.93 339.48,942.23 307.26,926.90 C295.89,921.49 293.97,920.88 289.68,921.28 C276.21,922.52 270.18,938.91 279.69,948.41 C284.79,953.52 321.38,969.41 348.50,978.30 C387.35,991.03 426.24,998.45 467.00,1000.90 C489.25,1002.23 491.01,1002.18 495.43,1000.01 ZM 597.10 989.45 C601.39,987.23 604.82,982.38 605.55,977.51 C607.41,965.12 593.78,955.22 582.34,960.64 C574.07,964.57 570.65,975.04 575.07,982.91 C579.73,991.20 588.61,993.84 597.10,989.45 ZM 701.84 952.58 C755.88,925.50 806.69,886.01 845.39,841.00 C858.04,826.29 858.99,824.70 859.00,818.40 C859.00,809.93 853.07,803.21 844.76,802.28 C837.71,801.48 834.37,803.76 822.72,817.32 C810.66,831.36 787.58,854.45 774.50,865.58 C749.45,886.89 722.72,904.80 691.73,921.03 C675.57,929.49 673.28,931.00 671.28,934.53 C664.99,945.63 672.54,958.83 685.26,958.96 C687.95,958.99 692.71,957.16 701.84,952.58 ZM 530.71 923.46 C550.14,916.94 567.86,899.50 584.50,870.51 C590.07,860.81 600.85,837.64 604.52,827.50 C605.52,824.75 606.67,822.11 607.08,821.64 C607.76,820.85 620.93,827.03 632.03,833.35 C639.05,837.34 663.37,846.82 674.92,850.07 C690.27,854.38 702.08,856.17 715.00,856.14 C749.73,856.04 769.78,838.03 774.15,802.96 C777.30,777.69 769.37,740.86 751.77,699.10 C744.54,681.94 730.26,653.58 720.08,636.15 C716.11,629.36 713.01,623.69 713.18,623.55 C713.57,623.24 720.63,621.35 728.00,619.57 C738.26,617.10 758.46,611.18 767.50,607.99 C772.45,606.25 781.00,603.27 786.50,601.38 C815.36,591.45 847.84,571.78 863.50,554.76 C876.52,540.61 881.93,528.65 881.97,513.93 C882.02,500.38 878.31,490.46 868.28,477.24 C854.53,459.12 824.65,439.90 788.03,425.62 L 776.55 421.15 L 773.28 427.28 C771.48,430.65 770.34,433.69 770.75,434.04 C771.16,434.39 775.55,436.17 780.50,437.99 C823.11,453.69 853.25,474.56 863.63,495.56 C868.44,505.31 869.35,516.08 866.13,525.25 C857.08,551.01 822.55,574.18 763.22,594.30 C740.28,602.08 736.19,603.13 734.08,601.82 C732.90,601.08 730.22,601.89 723.63,605.00 C718.37,607.47 712.68,609.38 709.63,609.69 L 704.50 610.20 L 694.34 594.85 C688.76,586.41 682.73,577.49 680.94,575.04 L 677.69 570.58 L 672.95 575.96 L 668.21 581.33 L 678.77 597.17 C684.57,605.88 689.05,613.29 688.71,613.63 C688.00,614.33 684.21,615.08 664.00,618.53 C643.36,622.04 644.85,622.41 645.64,614.00 C645.99,610.15 646.06,607.00 645.78,607.00 C645.50,607.00 639.32,613.54 632.05,621.52 C624.71,629.58 617.41,636.66 615.66,637.43 C613.92,638.19 598.55,652.63 581.50,669.53 C553.49,697.29 552.01,698.91 566.13,686.37 C584.63,669.95 582.42,672.07 599.57,654.32 L 613.26 640.15 L 620.55 639.46 C624.56,639.09 628.23,638.94 628.72,639.14 C630.34,639.81 625.68,678.06 619.90,711.50 C616.01,734.02 610.94,757.12 605.37,777.69 C599.54,799.21 599.93,798.00 598.75,798.00 C596.56,798.00 591.00,793.74 591.00,792.06 C591.00,790.76 588.77,789.40 582.75,787.03 C578.21,785.24 573.15,782.83 571.50,781.68 C562.37,775.33 539.53,758.00 526.14,747.26 C515.91,739.05 510.23,735.12 509.14,735.49 C508.24,735.80 505.51,737.77 503.08,739.87 L 498.66 743.70 L 508.58 751.94 C521.25,762.48 550.27,784.20 560.00,790.44 C564.12,793.09 569.75,796.69 572.50,798.44 C575.25,800.20 581.40,804.17 586.17,807.27 L 594.83 812.90 L 591.46 821.96 C575.97,863.64 556.31,893.83 537.15,905.39 C529.36,910.08 523.07,912.00 515.44,912.00 C486.07,912.00 457.58,875.75 435.29,810.00 C432.21,800.92 429.35,793.11 428.93,792.64 C428.09,791.68 418.01,796.82 417.35,798.54 C417.12,799.14 419.23,806.13 422.05,814.07 C424.87,822.00 427.77,830.59 428.50,833.15 C430.34,839.58 436.17,852.68 442.21,864.00 C468.07,912.39 499.92,933.80 530.71,923.46 ZM 217.49 895.57 C222.06,892.09 224.00,888.19 224.00,882.50 C224.00,876.87 222.06,872.91 217.66,869.55 C207.35,861.69 192.00,869.26 192.00,882.20 C192.00,887.59 193.57,891.38 197.15,894.62 C202.71,899.65 211.60,900.07 217.49,895.57 ZM 146.82 823.30 C152.13,819.37 154.22,815.06 153.79,808.91 C153.43,803.88 152.75,802.43 146.87,794.41 C111.02,745.43 87.86,696.02 73.35,637.58 C68.74,619.04 66.94,615.05 61.97,612.48 C58.18,610.53 50.65,610.60 46.37,612.63 C41.97,614.72 38.00,621.36 38.01,626.59 C38.03,631.35 44.53,658.25 49.47,674.00 C63.58,719.00 82.53,758.25 109.19,797.69 C121.60,816.05 127.06,822.66 131.45,824.65 C135.52,826.49 143.45,825.80 146.82,823.30 ZM 419.09 779.88 C422.91,777.61 426.24,775.41 426.50,775.00 C426.75,774.59 425.35,770.95 423.39,766.91 C420.59,761.16 418.98,755.33 415.97,740.03 C409.98,709.68 405.30,679.53 403.41,659.18 L 402.73 651.87 L 432.61 681.80 C449.05,698.27 468.04,716.73 474.82,722.82 L 487.14 733.89 L 493.03 729.31 L 498.92 724.74 L 493.72 720.12 C477.31,705.56 459.84,688.88 439.17,668.04 C412.21,640.85 412.58,642.88 435.00,644.99 C449.89,646.40 526.48,646.39 551.50,644.98 C560.85,644.45 573.67,643.72 579.99,643.35 L 591.49 642.68 L 597.35 637.09 C600.58,634.01 604.13,630.21 605.26,628.64 L 607.30 625.77 L 603.40 626.40 C582.67,629.71 506.60,632.48 461.00,631.58 C420.90,630.79 412.45,630.33 405.55,628.57 L 400.50 627.28 L 399.85 619.39 C398.32,601.02 397.00,561.45 397.00,534.16 C397.00,514.75 396.66,504.95 395.98,505.17 C395.43,505.36 392.05,508.88 388.49,513.01 L 382.01 520.50 L 382.00 542.97 C382.00,555.33 382.48,572.66 383.07,581.47 C383.66,590.29 384.00,599.96 383.82,602.96 L 383.50 608.42 L 374.29 597.96 C369.23,592.21 361.13,582.23 356.29,575.79 C351.46,569.34 347.17,564.06 346.77,564.04 C345.95,564.00 337.99,573.82 338.02,574.84 C338.05,575.75 356.97,598.15 363.91,605.50 C367.03,608.80 370.65,613.08 371.95,615.00 C373.25,616.92 375.68,619.96 377.34,621.74 C379.00,623.51 380.05,625.28 379.66,625.67 C378.85,626.49 352.17,623.08 326.73,618.91 C316.95,617.31 308.79,616.00 308.59,616.00 C307.99,616.00 299.70,629.04 300.11,629.34 C301.42,630.30 357.91,638.55 373.67,640.09 L 386.83 641.37 L 387.50 648.43 C389.00,664.47 393.27,695.79 396.56,715.00 C399.59,732.67 401.59,742.24 406.98,764.76 C407.54,767.11 407.99,769.81 407.98,770.76 C407.96,772.60 411.27,783.98 411.83,783.99 C412.00,784.00 415.27,782.14 419.09,779.88 ZM 904.94 747.03 C915.63,741.58 916.24,726.12 906.05,719.25 C901.44,716.15 893.55,716.15 888.99,719.25 C883.34,723.10 881.50,726.45 881.50,732.90 C881.50,737.70 881.98,739.28 884.38,742.43 C889.37,748.97 897.55,750.80 904.94,747.03 ZM 937.58 652.10 C945.19,648.65 946.49,645.79 950.64,623.50 C958.45,581.50 960.73,535.28 956.96,495.50 C955.02,475.10 951.79,454.45 949.92,450.50 C944.15,438.29 927.36,438.24 921.09,450.40 L 918.64 455.17 L 920.32 465.84 C923.72,487.40 925.11,503.04 925.69,526.00 C926.55,559.95 923.85,591.82 917.45,623.24 C916.10,629.86 915.00,636.58 915.00,638.18 C915.00,642.15 918.31,648.32 921.61,650.48 C927.38,654.26 931.83,654.71 937.58,652.10 ZM 288.25 620.16 C292.42,613.69 292.83,612.00 290.25,611.99 C289.29,611.99 279.50,609.78 268.50,607.07 C144.51,576.59 91.22,526.68 134.28,481.34 C148.97,465.88 170.79,452.63 202.15,440.15 C215.26,434.93 243.83,425.39 244.25,426.08 C244.39,426.31 247.96,433.48 252.19,442.00 C268.81,475.49 294.50,516.75 321.22,552.84 C328.99,563.34 328.74,563.31 334.57,554.90 L 337.29 550.98 L 333.17 545.24 C310.23,513.31 284.96,473.08 269.24,443.50 C259.22,424.64 258.12,422.00 260.30,422.00 C261.09,422.00 264.61,421.08 268.11,419.97 C276.48,417.29 314.18,409.72 335.00,406.53 C352.41,403.86 383.73,400.01 388.07,400.00 L 390.64 400.00 L 389.83 406.75 C387.26,428.03 384.35,462.96 383.48,483.00 L 382.89 496.50 L 390.72 488.50 L 398.54 480.50 L 398.18 475.43 C397.59,466.86 404.24,400.47 405.85,398.86 C406.79,397.93 437.75,396.09 465.32,395.33 L 489.14 394.68 L 497.99 387.24 L 506.84 379.80 L 494.17 369.11 C470.53,349.17 451.79,334.64 430.00,319.32 C422.82,314.28 421.55,312.97 421.83,310.92 C422.54,305.77 431.19,275.68 435.35,263.89 C451.25,218.87 467.96,190.23 487.50,174.52 C496.23,167.50 502.87,164.73 512.34,164.19 C523.38,163.55 529.65,165.21 538.48,171.11 C555.06,182.21 571.17,205.13 584.93,237.22 C591.28,252.04 602.44,284.68 604.42,294.23 C605.24,298.23 606.42,302.91 607.02,304.64 L 608.12 307.78 L 615.40 303.67 L 622.68 299.56 L 620.21 293.53 C618.86,290.21 615.85,281.42 613.52,274.00 C598.69,226.58 580.88,192.88 559.03,170.91 C549.73,161.55 547.35,159.74 538.60,155.41 C528.80,150.55 528.59,150.50 517.60,150.15 C508.26,149.86 505.47,150.15 500.00,151.97 C473.17,160.91 449.44,190.37 428.96,240.18 C423.62,253.20 414.66,280.11 410.98,294.25 C409.49,299.95 408.21,303.00 407.31,303.00 C405.47,303.00 399.98,300.16 387.86,292.91 C347.97,269.10 304.52,254.00 275.86,254.00 C243.66,254.00 222.60,270.07 216.59,299.21 C214.58,308.94 214.53,328.30 216.47,341.18 C219.09,358.54 226.03,382.58 234.33,403.00 C236.57,408.53 237.45,411.90 236.85,412.65 C236.34,413.28 232.22,414.79 227.71,415.99 C215.08,419.36 192.10,428.41 175.50,436.54 C141.84,453.03 120.42,470.96 110.99,490.50 C104.34,504.28 103.57,516.29 108.44,530.22 C119.44,561.71 166.17,592.40 234.58,613.06 C246.80,616.75 280.94,625.72 283.50,625.91 C284.05,625.95 286.19,623.36 288.25,620.16 ZM 647.76 578.55 C647.37,570.34 648.02,555.00 648.75,555.04 C649.16,555.07 651.53,557.98 654.00,561.53 C656.47,565.07 659.02,567.98 659.66,567.99 C660.31,567.99 662.64,565.73 664.85,562.95 L 668.86 557.91 L 658.59 544.45 L 648.31 530.99 L 648.12 513.25 C647.82,484.74 645.68,449.90 642.40,420.17 C641.53,412.30 641.06,405.61 641.35,405.31 C643.53,403.14 710.69,416.46 740.55,424.99 C748.22,427.18 754.99,428.98 755.60,428.99 C756.20,428.99 758.12,426.29 759.85,422.98 L 763.01 416.95 L 760.56 416.02 C743.07,409.37 693.67,398.14 657.00,392.48 C646.41,390.84 640.11,389.42 639.42,388.50 C638.82,387.72 637.76,383.12 637.06,378.29 C634.33,359.37 625.96,316.62 624.75,315.41 C624.10,314.77 612.00,322.01 612.00,323.05 C612.00,323.49 613.77,332.78 615.94,343.68 C621.36,370.93 623.60,385.81 622.44,386.89 C621.90,387.39 616.60,387.22 610.00,386.49 C603.67,385.79 591.08,384.71 582.00,384.07 C572.92,383.44 560.33,382.50 554.00,381.98 C535.50,380.45 528.23,380.50 526.25,382.16 C525.29,382.97 520.32,386.97 515.20,391.05 L 505.91 398.47 L 522.20 413.87 C551.12,441.20 580.38,471.89 601.91,497.46 C608.83,505.69 617.25,515.37 620.61,518.96 C623.98,522.56 628.43,527.75 630.50,530.50 L 634.27 535.50 L 633.57 560.50 C633.18,574.26 632.82,586.18 632.77,587.00 C632.72,587.83 632.78,590.75 632.89,593.50 L 633.10 598.50 L 640.52 590.55 C647.40,583.18 647.93,582.30 647.76,578.55 ZM 53.58 539.95 C57.70,537.41 60.72,532.64 61.51,527.45 C61.97,524.44 61.56,522.44 59.81,519.06 C56.62,512.93 53.23,510.71 46.26,510.23 C41.45,509.89 39.94,510.21 37.09,512.16 C31.30,516.14 29.50,519.42 29.50,526.00 C29.50,532.56 31.31,535.89 36.99,539.75 C41.36,542.72 48.95,542.81 53.58,539.95 ZM 65.33 440.64 C69.98,438.69 73.73,433.76 75.56,427.18 C92.95,364.66 118.40,314.15 156.59,266.36 C161.80,259.84 166.56,252.86 167.16,250.85 C168.74,245.58 167.43,240.49 163.34,235.95 C156.45,228.33 146.78,228.49 139.25,236.35 C131.68,244.25 115.69,265.48 104.58,282.39 C85.30,311.72 65.79,351.64 54.17,385.54 C48.45,402.23 43.00,421.81 43.00,425.64 C43.00,437.37 54.56,445.13 65.33,440.64 ZM 915.76 373.70 C925.99,366.81 924.53,350.78 913.23,345.78 C896.97,338.58 882.69,359.58 895.44,371.94 C897.22,373.67 900.00,375.50 901.59,376.00 C905.70,377.29 911.94,376.28 915.76,373.70 ZM 861.68 287.94 C865.98,286.32 870.92,281.00 872.06,276.77 C873.72,270.59 872.27,266.41 865.20,257.09 C832.98,214.58 792.84,176.91 749.50,148.51 C732.32,137.26 713.33,126.24 708.92,124.98 C697.94,121.83 686.23,132.38 688.55,143.33 C689.92,149.82 692.52,152.35 705.20,159.52 C720.93,168.42 746.46,185.46 760.25,196.25 C785.49,216.02 810.66,240.75 829.28,264.09 C835.17,271.46 841.82,279.63 844.07,282.24 C849.31,288.33 855.41,290.30 861.68,287.94 ZM 233.82 191.30 C243.86,183.87 243.47,169.68 233.07,163.61 C219.95,155.95 204.37,170.13 210.36,184.28 C214.08,193.06 226.45,196.76 233.82,191.30 ZM 329.13 137.19 C366.28,122.08 403.69,112.43 444.50,107.43 C451.65,106.55 470.63,105.53 486.68,105.17 C514.15,104.54 516.02,104.38 518.68,102.41 C528.89,94.83 528.55,80.75 518.00,74.55 C514.96,72.77 512.45,72.45 499.00,72.16 C437.50,70.79 364.04,85.54 308.84,110.35 C299.37,114.61 295.05,121.41 296.59,129.63 C297.38,133.86 302.20,139.72 306.48,141.66 C310.92,143.67 315.35,142.79 329.13,137.19 ZM 618.86 117.27 C623.64,113.73 626.00,109.18 626.00,103.50 C626.00,86.75 604.34,81.37 596.09,96.06 C591.63,103.99 595.02,114.23 603.40,118.15 C608.38,120.48 615.04,120.10 618.86,117.27 ZM 702.50 841.85 C686.38,839.79 662.84,832.03 640.71,821.47 C632.81,817.71 613.15,807.42 612.27,806.58 C612.14,806.46 613.62,800.99 615.55,794.43 C627.77,753.05 636.58,706.91 641.97,656.07 C643.10,645.38 644.13,636.57 644.26,636.48 C644.39,636.40 649.90,635.54 656.50,634.57 C663.10,633.61 675.03,631.56 683.00,630.02 C690.97,628.48 697.79,627.39 698.15,627.61 C698.99,628.11 715.12,656.44 722.29,670.00 C729.59,683.79 740.65,708.50 746.25,723.50 C755.68,748.76 759.87,767.10 760.64,786.50 C761.55,809.14 757.81,821.33 746.83,831.49 C736.42,841.13 722.44,844.40 702.50,841.85 ZM 251.30 405.79 C249.49,403.49 241.24,381.78 237.50,369.48 C225.62,330.42 225.43,302.56 236.95,285.31 C241.36,278.71 247.09,274.15 255.10,270.88 C263.25,267.56 282.93,267.09 296.57,269.89 C306.95,272.03 324.57,277.64 336.00,282.45 C359.55,292.35 404.00,317.64 404.00,321.13 C404.00,321.53 402.23,330.78 400.06,341.68 C397.89,352.58 395.35,366.71 394.42,373.07 L 392.72 384.64 L 379.61 385.88 C349.61,388.70 301.44,396.53 271.50,403.46 C257.00,406.81 252.50,407.33 251.30,405.79 ZM 408.00 381.51 C408.00,377.58 416.63,330.11 417.52,329.17 C418.28,328.36 452.59,353.90 471.50,369.35 C477.55,374.29 482.69,378.48 482.92,378.67 C484.13,379.64 480.17,379.96 455.03,380.94 C439.94,381.53 423.19,382.31 417.80,382.66 C408.81,383.25 408.00,383.15 408.00,381.51 ZM 630.30 508.39 C629.31,506.95 626.02,503.01 622.98,499.64 C619.95,496.26 610.74,485.62 602.51,476.00 C594.29,466.38 573.57,444.44 556.47,427.27 L 525.38 396.03 L 542.44 396.05 C563.71,396.07 623.13,400.99 625.24,402.90 C626.31,403.88 630.68,449.25 631.90,472.00 C633.72,505.95 633.86,511.00 632.97,511.00 C632.49,511.00 631.28,509.82 630.30,508.39 Z" fill="rgb(253,240,26)"/>
<path d="M 0.00 529.50 L 0.00 0.00 L 495.00 0.00 L 990.00 0.00 L 990.00 529.50 L 990.00 1059.00 L 495.00 1059.00 L 0.00 1059.00 L 0.00 529.50 ZM 495.43 1000.01 C507.47,994.14 507.82,977.19 496.04,971.25 C492.43,969.43 489.91,969.00 482.84,969.00 C465.04,969.00 431.38,965.29 409.50,960.91 C374.66,953.93 339.48,942.23 307.26,926.90 C295.89,921.49 293.97,920.88 289.68,921.28 C276.21,922.52 270.18,938.91 279.69,948.41 C284.79,953.52 321.38,969.41 348.50,978.30 C387.35,991.03 426.24,998.45 467.00,1000.90 C489.25,1002.23 491.01,1002.18 495.43,1000.01 ZM 597.10 989.45 C601.39,987.23 604.82,982.38 605.55,977.51 C607.41,965.12 593.78,955.22 582.34,960.64 C574.07,964.57 570.65,975.04 575.07,982.91 C579.73,991.20 588.61,993.84 597.10,989.45 ZM 701.84 952.58 C755.88,925.50 806.69,886.01 845.39,841.00 C858.04,826.29 858.99,824.70 859.00,818.40 C859.00,809.93 853.07,803.21 844.76,802.28 C837.71,801.48 834.37,803.76 822.72,817.32 C810.66,831.36 787.58,854.45 774.50,865.58 C749.45,886.89 722.72,904.80 691.73,921.03 C675.57,929.49 673.28,931.00 671.28,934.53 C664.99,945.63 672.54,958.83 685.26,958.96 C687.95,958.99 692.71,957.16 701.84,952.58 ZM 530.71 923.46 C550.14,916.94 567.86,899.50 584.50,870.51 C590.07,860.81 600.85,837.64 604.52,827.50 C605.52,824.75 606.67,822.11 607.08,821.64 C607.76,820.85 620.93,827.03 632.03,833.35 C639.05,837.34 663.37,846.82 674.92,850.07 C690.27,854.38 702.08,856.17 715.00,856.14 C749.73,856.04 769.78,838.03 774.15,802.96 C777.30,777.69 769.37,740.86 751.77,699.10 C744.54,681.94 730.26,653.58 720.08,636.15 C716.11,629.36 713.01,623.69 713.18,623.55 C713.57,623.24 720.63,621.35 728.00,619.57 C738.26,617.10 758.46,611.18 767.50,607.99 C772.45,606.25 781.00,603.27 786.50,601.38 C815.36,591.45 847.84,571.78 863.50,554.76 C876.52,540.61 881.93,528.65 881.97,513.93 C882.04,490.71 868.05,470.58 838.00,450.70 C826.51,443.10 803.19,431.43 787.50,425.43 C782.00,423.32 777.36,421.51 777.19,421.41 C776.78,421.15 781.36,410.32 786.04,400.50 C790.60,390.95 797.17,371.55 800.46,357.97 C809.61,320.17 804.61,288.99 786.91,273.59 C781.02,268.47 770.12,263.34 760.96,261.39 C751.00,259.27 728.29,259.99 715.00,262.85 C690.39,268.13 666.58,277.03 637.72,291.74 C629.59,295.88 622.77,299.10 622.57,298.88 C621.60,297.88 614.97,279.61 612.98,272.50 C607.94,254.41 595.79,225.27 585.77,207.25 C576.85,191.21 569.75,181.59 558.57,170.41 C549.80,161.65 547.19,159.69 538.59,155.42 C528.79,150.55 528.59,150.50 517.60,150.15 C508.26,149.86 505.47,150.15 500.00,151.97 C473.17,160.91 449.44,190.37 428.96,240.18 C423.62,253.20 414.66,280.11 410.98,294.25 C409.49,299.95 408.21,303.00 407.31,303.00 C405.47,303.00 399.98,300.16 387.86,292.91 C347.97,269.10 304.52,254.00 275.86,254.00 C243.66,254.00 222.60,270.07 216.59,299.21 C214.58,308.94 214.53,328.30 216.47,341.18 C219.09,358.54 226.03,382.58 234.33,403.00 C236.57,408.53 237.45,411.90 236.85,412.65 C236.34,413.28 232.22,414.79 227.71,415.99 C215.08,419.36 192.10,428.41 175.50,436.54 C141.84,453.03 120.42,470.96 110.99,490.50 C104.34,504.28 103.57,516.29 108.44,530.22 C121.32,567.09 183.27,602.50 270.00,622.58 C276.33,624.04 282.03,625.52 282.68,625.87 C283.49,626.30 282.42,628.89 279.31,633.99 C276.80,638.10 274.14,641.92 273.41,642.48 C272.67,643.04 269.45,649.12 266.26,656.00 C263.06,662.88 259.25,670.53 257.78,673.00 C251.20,684.11 238.05,716.24 233.03,733.50 C227.35,752.98 225.60,764.15 225.67,780.50 C225.72,793.46 226.06,796.61 228.19,803.66 C238.98,839.44 273.03,851.19 326.64,837.64 C348.44,832.13 379.52,819.14 405.30,804.79 C411.24,801.48 416.28,798.95 416.50,799.17 C417.08,799.75 426.91,827.59 428.50,833.15 C430.34,839.58 436.17,852.68 442.21,864.00 C468.07,912.39 499.92,933.80 530.71,923.46 ZM 217.49 895.57 C222.06,892.09 224.00,888.19 224.00,882.50 C224.00,876.87 222.06,872.91 217.66,869.55 C207.35,861.69 192.00,869.26 192.00,882.20 C192.00,887.59 193.57,891.38 197.15,894.62 C202.71,899.65 211.60,900.07 217.49,895.57 ZM 146.82 823.30 C152.13,819.37 154.22,815.06 153.79,808.91 C153.43,803.88 152.75,802.43 146.87,794.41 C111.02,745.43 87.86,696.02 73.35,637.58 C68.74,619.04 66.94,615.05 61.97,612.48 C58.18,610.53 50.65,610.60 46.37,612.63 C41.97,614.72 38.00,621.36 38.01,626.59 C38.03,631.35 44.53,658.25 49.47,674.00 C63.58,719.00 82.53,758.25 109.19,797.69 C121.60,816.05 127.06,822.66 131.45,824.65 C135.52,826.49 143.45,825.80 146.82,823.30 ZM 904.94 747.03 C915.63,741.58 916.24,726.12 906.05,719.25 C901.44,716.15 893.55,716.15 888.99,719.25 C883.34,723.10 881.50,726.45 881.50,732.90 C881.50,737.70 881.98,739.28 884.38,742.43 C889.37,748.97 897.55,750.80 904.94,747.03 ZM 937.58 652.10 C945.19,648.65 946.49,645.79 950.64,623.50 C958.45,581.50 960.73,535.28 956.96,495.50 C955.02,475.10 951.79,454.45 949.92,450.50 C944.15,438.29 927.36,438.24 921.09,450.40 L 918.64 455.17 L 920.32 465.84 C923.72,487.40 925.11,503.04 925.69,526.00 C926.55,559.95 923.85,591.82 917.45,623.24 C916.10,629.86 915.00,636.58 915.00,638.18 C915.00,642.15 918.31,648.32 921.61,650.48 C927.38,654.26 931.83,654.71 937.58,652.10 ZM 53.58 539.95 C57.70,537.41 60.72,532.64 61.51,527.45 C61.97,524.44 61.56,522.44 59.81,519.06 C56.62,512.93 53.23,510.71 46.26,510.23 C41.45,509.89 39.94,510.21 37.09,512.16 C31.30,516.14 29.50,519.42 29.50,526.00 C29.50,532.56 31.31,535.89 36.99,539.75 C41.36,542.72 48.95,542.81 53.58,539.95 ZM 65.33 440.64 C69.98,438.69 73.73,433.76 75.56,427.18 C92.95,364.66 118.40,314.15 156.59,266.36 C161.80,259.84 166.56,252.86 167.16,250.85 C168.74,245.58 167.43,240.49 163.34,235.95 C156.45,228.33 146.78,228.49 139.25,236.35 C131.68,244.25 115.69,265.48 104.58,282.39 C85.30,311.72 65.79,351.64 54.17,385.54 C48.45,402.23 43.00,421.81 43.00,425.64 C43.00,437.37 54.56,445.13 65.33,440.64 ZM 915.76 373.70 C925.99,366.81 924.53,350.78 913.23,345.78 C896.97,338.58 882.69,359.58 895.44,371.94 C897.22,373.67 900.00,375.50 901.59,376.00 C905.70,377.29 911.94,376.28 915.76,373.70 ZM 861.68 287.94 C865.98,286.32 870.92,281.00 872.06,276.77 C873.72,270.59 872.27,266.41 865.20,257.09 C832.98,214.58 792.84,176.91 749.50,148.51 C732.32,137.26 713.33,126.24 708.92,124.98 C697.94,121.83 686.23,132.38 688.55,143.33 C689.92,149.82 692.52,152.35 705.20,159.52 C720.93,168.42 746.46,185.46 760.25,196.25 C785.49,216.02 810.66,240.75 829.28,264.09 C835.17,271.46 841.82,279.63 844.07,282.24 C849.31,288.33 855.41,290.30 861.68,287.94 ZM 233.82 191.30 C243.86,183.87 243.47,169.68 233.07,163.61 C219.95,155.95 204.37,170.13 210.36,184.28 C214.08,193.06 226.45,196.76 233.82,191.30 ZM 329.13 137.19 C366.28,122.08 403.69,112.43 444.50,107.43 C451.65,106.55 470.63,105.53 486.68,105.17 C514.15,104.54 516.02,104.38 518.68,102.41 C528.89,94.83 528.55,80.75 518.00,74.55 C514.96,72.77 512.45,72.45 499.00,72.16 C437.50,70.79 364.04,85.54 308.84,110.35 C299.37,114.61 295.05,121.41 296.59,129.63 C297.38,133.86 302.20,139.72 306.48,141.66 C310.92,143.67 315.35,142.79 329.13,137.19 ZM 618.86 117.27 C623.64,113.73 626.00,109.18 626.00,103.50 C626.00,86.75 604.34,81.37 596.09,96.06 C591.63,103.99 595.02,114.23 603.40,118.15 C608.38,120.48 615.04,120.10 618.86,117.27 ZM 503.24 910.04 C477.78,900.87 454.63,866.69 434.94,809.15 C431.67,799.60 429.00,791.67 429.00,791.51 C429.00,791.35 433.84,788.16 439.75,784.43 C453.39,775.83 465.77,767.34 483.68,754.31 C491.48,748.64 498.11,744.00 498.42,744.00 C498.72,744.00 504.13,748.24 510.44,753.43 C516.75,758.62 528.79,767.98 537.20,774.24 C551.01,784.51 555.70,787.72 572.50,798.44 C575.25,800.20 581.40,804.17 586.17,807.27 L 594.83 812.90 L 591.46 821.96 C573.12,871.31 550.28,902.49 526.72,910.40 C520.28,912.55 509.79,912.39 503.24,910.04 ZM 702.50 841.85 C686.38,839.79 662.84,832.03 640.71,821.47 C632.81,817.71 613.15,807.42 612.27,806.58 C612.14,806.46 613.62,800.99 615.55,794.43 C627.77,753.05 636.58,706.91 641.97,656.07 C643.10,645.38 644.13,636.57 644.26,636.48 C644.39,636.40 649.90,635.54 656.50,634.57 C663.10,633.61 675.03,631.56 683.00,630.02 C690.97,628.48 697.79,627.39 698.15,627.61 C698.99,628.11 715.12,656.44 722.29,670.00 C729.59,683.79 740.65,708.50 746.25,723.50 C755.68,748.76 759.87,767.10 760.64,786.50 C761.55,809.14 757.81,821.33 746.83,831.49 C736.42,841.13 722.44,844.40 702.50,841.85 ZM 277.23 828.92 C269.60,827.75 262.20,824.92 256.50,821.00 C231.63,803.89 233.42,760.16 261.54,698.00 C266.74,686.50 279.27,662.33 281.20,660.08 C282.05,659.08 284.46,655.17 286.53,651.38 C288.61,647.60 292.32,641.24 294.76,637.25 C299.94,628.81 299.13,629.01 315.58,631.95 C331.43,634.79 359.56,638.72 374.17,640.14 L 386.84 641.38 L 387.50 648.44 C389.00,664.47 393.27,695.79 396.56,715.00 C399.59,732.67 401.59,742.24 406.98,764.76 C407.54,767.11 408.01,770.03 408.03,771.26 C408.05,772.49 408.91,775.95 409.94,778.94 L 411.82 784.39 L 403.16 789.28 C351.84,818.26 304.62,833.12 277.23,828.92 ZM 594.25 795.88 C592.46,794.74 591.00,793.01 591.00,792.04 C591.00,790.77 588.73,789.39 582.75,787.03 C573.30,783.29 574.04,783.78 551.50,766.88 C529.35,750.27 511.50,735.75 511.50,734.33 C511.50,733.71 515.55,729.93 520.50,725.93 C533.41,715.51 538.99,710.69 561.62,690.50 C585.00,669.64 582.05,672.45 599.57,654.32 L 613.26 640.15 L 620.55 639.46 C624.56,639.09 628.23,638.94 628.72,639.14 C630.34,639.81 625.68,678.06 619.90,711.50 C615.25,738.43 607.23,773.08 600.29,796.25 C599.61,798.52 598.24,798.44 594.25,795.88 ZM 423.53 767.23 C420.58,761.11 419.01,755.45 415.96,740.00 C410.00,709.75 405.30,679.52 403.42,659.26 L 402.74 652.03 L 435.12 684.28 C452.93,702.01 471.85,720.33 477.17,724.98 C482.49,729.63 486.65,733.76 486.40,734.16 C485.31,735.92 438.66,768.19 428.38,774.29 C427.68,774.71 425.85,772.04 423.53,767.23 ZM 492.26 718.85 C475.52,703.89 444.18,673.72 430.77,659.66 L 415.52 643.67 L 427.01 644.44 C433.33,644.86 442.82,645.50 448.10,645.85 C461.96,646.79 550.53,645.46 570.13,644.03 C579.28,643.36 587.46,642.96 588.31,643.15 C589.99,643.53 573.58,661.03 557.19,676.33 C540.35,692.04 501.28,724.00 498.90,724.00 C498.42,724.00 495.43,721.68 492.26,718.85 ZM 443.92 631.62 C443.69,631.42 436.08,630.94 427.00,630.57 C417.92,630.20 408.25,629.31 405.50,628.59 L 400.50 627.28 L 399.85 619.39 C398.31,600.85 397.00,561.34 397.00,533.40 L 397.00 503.33 L 408.70 490.91 C424.09,474.58 438.86,459.78 453.00,446.52 C459.33,440.59 468.55,431.82 473.50,427.03 C478.45,422.24 485.64,415.66 489.48,412.41 C493.31,409.16 497.96,405.15 499.81,403.50 C505.79,398.17 505.09,397.90 518.75,410.67 C548.57,438.54 579.37,470.69 601.91,497.46 C608.83,505.69 617.25,515.37 620.61,518.96 C623.98,522.56 628.43,527.75 630.50,530.50 L 634.27 535.50 L 633.49 561.00 C633.05,575.03 632.80,589.33 632.92,592.79 L 633.13 599.08 L 620.55 612.43 C609.06,624.62 607.59,625.83 603.73,626.39 C594.31,627.75 558.86,630.03 532.50,630.97 C505.40,631.94 444.76,632.39 443.92,631.62 ZM 350.00 622.51 C324.94,618.82 309.95,616.28 309.26,615.60 C309.01,615.35 310.29,612.97 312.10,610.32 C316.45,603.96 335.99,576.72 336.93,575.72 C337.33,575.29 341.90,580.02 347.08,586.22 C352.26,592.42 359.44,600.65 363.04,604.50 C366.64,608.35 370.98,613.53 372.68,616.00 C374.38,618.47 376.72,621.36 377.88,622.40 C382.93,626.94 380.29,626.95 350.00,622.51 ZM 645.65 613.75 L 646.31 606.50 L 656.90 594.33 C662.73,587.63 667.77,582.12 668.10,582.08 C669.11,581.95 689.36,612.98 688.70,613.63 C688.00,614.33 684.17,615.09 664.00,618.53 C643.31,622.05 644.85,622.45 645.65,613.75 ZM 290.50 612.20 C289.40,612.02 279.50,609.68 268.50,607.01 C145.08,577.07 91.23,526.66 134.28,481.34 C148.97,465.88 170.79,452.63 202.15,440.15 C215.26,434.93 243.83,425.39 244.25,426.08 C244.39,426.31 247.96,433.48 252.19,442.00 C268.78,475.44 296.88,520.49 321.74,553.50 L 328.52 562.50 L 321.05 572.50 C316.94,578.00 308.83,589.26 303.04,597.52 C294.67,609.45 292.09,612.47 290.50,612.20 ZM 692.00 591.51 C685.12,581.25 679.11,572.29 678.63,571.61 C678.03,570.78 681.57,565.60 689.67,555.44 C713.85,525.14 734.03,496.53 747.48,473.50 C750.69,468.00 754.30,461.92 755.50,460.00 C756.71,458.08 760.53,451.48 764.00,445.33 L 770.32 434.17 L 778.41 437.14 C822.65,453.40 853.10,474.26 863.59,495.48 C868.45,505.31 869.36,516.05 866.13,525.25 C857.08,551.01 822.55,574.18 763.22,594.30 C740.28,602.08 736.19,603.13 734.08,601.82 C732.90,601.08 730.22,601.89 723.63,605.00 C718.33,607.49 712.70,609.37 709.63,609.68 L 704.50 610.18 L 692.00 591.51 ZM 374.49 598.16 C365.54,587.93 347.00,564.26 347.00,563.06 C347.00,562.42 351.38,557.00 370.80,533.60 L 381.50 520.70 L 381.69 538.10 C381.79,547.67 382.41,566.53 383.07,580.00 C383.73,593.47 384.10,605.39 383.88,606.47 C383.57,608.02 381.60,606.29 374.49,598.16 ZM 647.79 580.26 C647.14,577.75 648.13,554.99 648.88,555.04 C649.22,555.07 651.53,557.98 654.00,561.53 C656.47,565.07 658.87,567.98 659.32,567.99 C660.25,568.00 658.44,570.43 652.37,577.32 C649.07,581.07 648.15,581.66 647.79,580.26 ZM 658.20 543.97 L 648.31 530.94 L 648.12 513.22 C647.82,484.74 645.68,449.89 642.40,420.17 C641.53,412.30 641.06,405.61 641.35,405.31 C642.64,404.03 683.56,411.17 711.16,417.50 C732.65,422.43 756.00,429.13 756.00,430.36 C756.00,430.93 754.95,432.99 753.66,434.95 C752.37,436.90 750.56,439.74 749.64,441.25 C748.71,442.76 747.35,444.00 746.61,444.00 C745.44,444.00 741.00,454.03 741.00,456.67 C741.00,462.12 672.79,557.00 668.86,557.00 C668.44,557.00 663.64,551.14 658.20,543.97 ZM 327.31 536.78 C303.10,502.28 285.15,473.44 269.24,443.50 C259.22,424.64 258.12,422.00 260.30,422.00 C261.09,422.00 264.61,421.08 268.11,419.97 C276.48,417.29 314.18,409.72 335.00,406.53 C352.41,403.86 383.73,400.01 388.07,400.00 L 390.64 400.00 L 389.83 406.75 C387.10,429.32 384.15,464.99 383.50,483.33 L 383.01 497.16 L 372.74 508.83 C363.26,519.61 354.35,530.19 343.11,544.00 C340.65,547.03 338.35,549.85 337.99,550.28 C337.63,550.72 332.82,544.64 327.31,536.78 ZM 630.30 508.39 C629.31,506.95 626.02,503.01 622.98,499.64 C619.95,496.26 610.74,485.62 602.51,476.00 C594.29,466.38 573.57,444.44 556.47,427.27 L 525.38 396.03 L 542.44 396.05 C563.71,396.07 623.13,400.99 625.24,402.90 C626.31,403.88 630.68,449.25 631.90,472.00 C633.72,505.95 633.86,511.00 632.97,511.00 C632.49,511.00 631.28,509.82 630.30,508.39 ZM 398.00 473.77 C398.00,462.05 404.48,400.21 405.85,398.86 C406.78,397.94 437.51,396.11 464.99,395.33 C485.35,394.76 488.28,394.86 486.99,396.10 C486.17,396.88 479.42,402.86 472.00,409.38 C464.58,415.90 445.27,434.12 429.11,449.87 C412.94,465.62 399.33,478.65 398.86,478.83 C398.39,479.02 398.00,476.74 398.00,473.77 ZM 753.50 413.79 C730.55,406.52 690.12,397.59 657.00,392.48 C646.41,390.84 640.11,389.42 639.42,388.50 C638.82,387.72 637.76,383.12 637.06,378.29 C635.34,366.37 630.48,339.92 627.55,326.51 C626.05,319.65 625.50,315.11 626.07,314.41 C627.46,312.74 659.01,296.81 671.13,291.66 C685.57,285.52 697.30,281.46 710.99,277.86 C720.58,275.34 725.09,274.74 738.00,274.29 C755.63,273.68 762.52,274.86 771.59,280.05 C780.81,285.33 787.64,295.59 790.04,307.80 C791.75,316.51 790.78,337.12 788.10,348.83 C784.02,366.62 772.97,396.75 764.91,412.07 L 762.50 416.64 L 753.50 413.79 ZM 251.30 405.79 C249.49,403.49 241.24,381.78 237.50,369.48 C225.62,330.42 225.43,302.56 236.95,285.31 C241.36,278.71 247.09,274.15 255.10,270.88 C263.25,267.56 282.93,267.09 296.57,269.89 C306.95,272.03 324.57,277.64 336.00,282.45 C359.55,292.35 404.00,317.64 404.00,321.13 C404.00,321.53 402.23,330.78 400.06,341.68 C397.89,352.58 395.35,366.71 394.42,373.07 L 392.72 384.64 L 379.61 385.88 C349.61,388.70 301.44,396.53 271.50,403.46 C257.00,406.81 252.50,407.33 251.30,405.79 ZM 614.00 386.94 C610.42,386.51 598.50,385.45 587.50,384.58 C576.50,383.72 561.88,382.55 555.00,382.00 C548.12,381.44 539.69,380.99 536.25,380.99 C532.81,381.00 530.00,380.56 530.00,380.03 C530.00,377.08 609.76,321.42 611.49,323.16 C612.14,323.81 618.68,356.68 621.05,371.17 C623.13,383.92 623.19,388.20 621.28,387.86 C620.85,387.79 617.58,387.37 614.00,386.94 ZM 408.00 381.51 C408.00,377.58 416.63,330.11 417.52,329.17 C418.28,328.36 452.59,353.90 471.50,369.35 C477.55,374.29 482.69,378.48 482.92,378.67 C484.13,379.64 480.17,379.96 455.03,380.94 C439.94,381.53 423.19,382.31 417.80,382.66 C408.81,383.25 408.00,383.15 408.00,381.51 ZM 498.00 372.39 C478.41,355.43 451.46,334.41 430.00,319.32 C422.82,314.28 421.55,312.97 421.83,310.92 C422.01,309.59 424.15,301.25 426.57,292.39 C444.59,226.47 471.59,179.78 498.98,167.17 C505.60,164.12 517.52,163.13 525.64,164.94 C540.92,168.36 559.96,188.12 574.83,216.00 C585.12,235.27 600.82,276.85 604.44,294.39 C605.29,298.47 606.43,303.01 606.99,304.47 C607.55,305.93 608.00,307.29 608.00,307.47 C608.00,307.66 603.39,310.67 597.75,314.15 C574.31,328.62 548.19,347.00 522.38,367.18 C514.06,373.68 506.86,378.97 506.38,378.94 C505.90,378.91 502.12,375.96 498.00,372.39 Z" fill="rgb(254,254,254)"/>
</g>
</svg>